<?xml version="1.0" encoding="UTF-8"?>
<svg xmlns="http://www.w3.org/2000/svg" width="800" height="1000" viewBox="0 0 800 1000" role="img">
  <defs>
    <filter id="glow" x="-50%" y="-50%" width="200%" height="200%">
      <feGaussianBlur stdDeviation="7" result="blur"/>
      <feMerge>
        <feMergeNode in="blur"/>
        <feMergeNode in="SourceGraphic"/>
      </feMerge>
    </filter>
    <pattern id="grid" width="52" height="52" patternUnits="userSpaceOnUse">
      <path d="M52 0H0v52" fill="none" stroke="rgba(255,255,255,.08)" stroke-width="1"/>
    </pattern>
    
  </defs>
  
    <rect width="800" height="1000" fill="#070913"/>
    <radialGradient id="cg" cx="50%" cy="32%" r="68%">
      <stop offset="0" stop-color="#66a6ff" stop-opacity=".38"/>
      <stop offset=".48" stop-color="#fff" stop-opacity=".18"/>
      <stop offset="1" stop-color="#070913"/>
    </radialGradient>
    <rect width="800" height="1000" fill="url(#cg)"/>
    <rect width="800" height="1000" fill="url(#grid)" opacity=".36"/>
    <circle cx="0" cy="41" r="0.8" fill="rgba(255,255,255,.7)" opacity="0.25"/><circle cx="97" cy="94" r="1.15" fill="rgba(255,255,255,.7)" opacity="0.37"/><circle cx="194" cy="147" r="1.5" fill="rgba(255,255,255,.7)" opacity="0.49"/><circle cx="291" cy="200" r="1.8499999999999999" fill="rgba(255,255,255,.7)" opacity="0.61"/><circle cx="388" cy="253" r="0.8" fill="rgba(255,255,255,.7)" opacity="0.73"/><circle cx="485" cy="306" r="1.15" fill="rgba(255,255,255,.7)" opacity="0.25"/><circle cx="582" cy="359" r="1.5" fill="rgba(255,255,255,.7)" opacity="0.37"/><circle cx="679" cy="412" r="1.8499999999999999" fill="rgba(255,255,255,.7)" opacity="0.49"/><circle cx="776" cy="465" r="0.8" fill="rgba(255,255,255,.7)" opacity="0.61"/><circle cx="73" cy="518" r="1.15" fill="rgba(255,255,255,.7)" opacity="0.73"/><circle cx="170" cy="571" r="1.5" fill="rgba(255,255,255,.7)" opacity="0.25"/><circle cx="267" cy="624" r="1.8499999999999999" fill="rgba(255,255,255,.7)" opacity="0.37"/><circle cx="364" cy="677" r="0.8" fill="rgba(255,255,255,.7)" opacity="0.49"/><circle cx="461" cy="730" r="1.15" fill="rgba(255,255,255,.7)" opacity="0.61"/><circle cx="558" cy="783" r="1.5" fill="rgba(255,255,255,.7)" opacity="0.73"/><circle cx="655" cy="836" r="1.8499999999999999" fill="rgba(255,255,255,.7)" opacity="0.25"/><circle cx="752" cy="889" r="0.8" fill="rgba(255,255,255,.7)" opacity="0.37"/><circle cx="49" cy="942" r="1.15" fill="rgba(255,255,255,.7)" opacity="0.49"/><circle cx="146" cy="995" r="1.5" fill="rgba(255,255,255,.7)" opacity="0.61"/><circle cx="243" cy="48" r="1.8499999999999999" fill="rgba(255,255,255,.7)" opacity="0.73"/><circle cx="340" cy="101" r="0.8" fill="rgba(255,255,255,.7)" opacity="0.25"/><circle cx="437" cy="154" r="1.15" fill="rgba(255,255,255,.7)" opacity="0.37"/><circle cx="534" cy="207" r="1.5" fill="rgba(255,255,255,.7)" opacity="0.49"/><circle cx="631" cy="260" r="1.8499999999999999" fill="rgba(255,255,255,.7)" opacity="0.61"/><circle cx="728" cy="313" r="0.8" fill="rgba(255,255,255,.7)" opacity="0.73"/><circle cx="25" cy="366" r="1.15" fill="rgba(255,255,255,.7)" opacity="0.25"/><circle cx="122" cy="419" r="1.5" fill="rgba(255,255,255,.7)" opacity="0.37"/><circle cx="219" cy="472" r="1.8499999999999999" fill="rgba(255,255,255,.7)" opacity="0.49"/><circle cx="316" cy="525" r="0.8" fill="rgba(255,255,255,.7)" opacity="0.61"/><circle cx="413" cy="578" r="1.15" fill="rgba(255,255,255,.7)" opacity="0.73"/><circle cx="510" cy="631" r="1.5" fill="rgba(255,255,255,.7)" opacity="0.25"/><circle cx="607" cy="684" r="1.8499999999999999" fill="rgba(255,255,255,.7)" opacity="0.37"/><circle cx="704" cy="737" r="0.8" fill="rgba(255,255,255,.7)" opacity="0.49"/><circle cx="1" cy="790" r="1.15" fill="rgba(255,255,255,.7)" opacity="0.61"/><circle cx="98" cy="843" r="1.5" fill="rgba(255,255,255,.7)" opacity="0.73"/><circle cx="195" cy="896" r="1.8499999999999999" fill="rgba(255,255,255,.7)" opacity="0.25"/><circle cx="292" cy="949" r="0.8" fill="rgba(255,255,255,.7)" opacity="0.37"/><circle cx="389" cy="2" r="1.15" fill="rgba(255,255,255,.7)" opacity="0.49"/><circle cx="486" cy="55" r="1.5" fill="rgba(255,255,255,.7)" opacity="0.61"/><circle cx="583" cy="108" r="1.8499999999999999" fill="rgba(255,255,255,.7)" opacity="0.73"/><circle cx="680" cy="161" r="0.8" fill="rgba(255,255,255,.7)" opacity="0.25"/><circle cx="777" cy="214" r="1.15" fill="rgba(255,255,255,.7)" opacity="0.37"/><circle cx="74" cy="267" r="1.5" fill="rgba(255,255,255,.7)" opacity="0.49"/><circle cx="171" cy="320" r="1.8499999999999999" fill="rgba(255,255,255,.7)" opacity="0.61"/><circle cx="268" cy="373" r="0.8" fill="rgba(255,255,255,.7)" opacity="0.73"/><circle cx="365" cy="426" r="1.15" fill="rgba(255,255,255,.7)" opacity="0.25"/><circle cx="462" cy="479" r="1.5" fill="rgba(255,255,255,.7)" opacity="0.37"/><circle cx="559" cy="532" r="1.8499999999999999" fill="rgba(255,255,255,.7)" opacity="0.49"/><circle cx="656" cy="585" r="0.8" fill="rgba(255,255,255,.7)" opacity="0.61"/><circle cx="753" cy="638" r="1.15" fill="rgba(255,255,255,.7)" opacity="0.73"/><circle cx="50" cy="691" r="1.5" fill="rgba(255,255,255,.7)" opacity="0.25"/><circle cx="147" cy="744" r="1.8499999999999999" fill="rgba(255,255,255,.7)" opacity="0.37"/><circle cx="244" cy="797" r="0.8" fill="rgba(255,255,255,.7)" opacity="0.49"/><circle cx="341" cy="850" r="1.15" fill="rgba(255,255,255,.7)" opacity="0.61"/><circle cx="438" cy="903" r="1.5" fill="rgba(255,255,255,.7)" opacity="0.73"/><circle cx="535" cy="956" r="1.8499999999999999" fill="rgba(255,255,255,.7)" opacity="0.25"/><circle cx="632" cy="9" r="0.8" fill="rgba(255,255,255,.7)" opacity="0.37"/><circle cx="729" cy="62" r="1.15" fill="rgba(255,255,255,.7)" opacity="0.49"/>
    <ellipse cx="400" cy="860" rx="220" ry="54" fill="#66a6ff" opacity=".14" filter="url(#glow)"/>
    <path d="M318 300c-90 90-120 240-92 410h310c28-170-2-320-92-410z" fill="rgba(245,252,255,.78)" stroke="#66a6ff" stroke-width="4"/><g stroke="#66a6ff" stroke-width="4" fill="none" filter="url(#glow)"><path d="M185 305c-50 70-50 140 0 210"/><path d="M575 305c50 70 50 140 0 210"/></g>
    <circle cx="380" cy="215" r="58" fill="rgba(242,247,255,.88)" stroke="#66a6ff" stroke-width="4"/>
    <path d="M320 210c38-72 100-72 138 0" fill="none" stroke="#fff" stroke-width="12" stroke-linecap="round"/>
    <path d="M255 790h250" stroke="#66a6ff" stroke-width="4" opacity=".65"/>
  
</svg>