<?xml version="1.0" encoding="UTF-8"?>
<svg xmlns="http://www.w3.org/2000/svg" width="1600" height="900" viewBox="0 0 1600 900" role="img">
  <defs>
    <filter id="glow" x="-50%" y="-50%" width="200%" height="200%">
      <feGaussianBlur stdDeviation="7" result="blur"/>
      <feMerge>
        <feMergeNode in="blur"/>
        <feMergeNode in="SourceGraphic"/>
      </feMerge>
    </filter>
    <pattern id="grid" width="52" height="52" patternUnits="userSpaceOnUse">
      <path d="M52 0H0v52" fill="none" stroke="rgba(255,255,255,.08)" stroke-width="1"/>
    </pattern>
    
  </defs>
  
    <rect width="1600" height="900" fill="#070913"/>
    <radialGradient id="bgGrad" cx="68%" cy="24%" r="70%">
      <stop offset="0" stop-color="#ff8a3d" stop-opacity=".34"/>
      <stop offset=".52" stop-color="#fff0b8" stop-opacity=".12"/>
      <stop offset="1" stop-color="#070913" stop-opacity="1"/>
    </radialGradient>
    <rect width="1600" height="900" fill="url(#bgGrad)"/>
    <rect width="1600" height="900" fill="url(#grid)" opacity=".5"/>
    <circle cx="0" cy="41" r="0.8" fill="rgba(255,255,255,.7)" opacity="0.25"/><circle cx="97" cy="94" r="1.15" fill="rgba(255,255,255,.7)" opacity="0.37"/><circle cx="194" cy="147" r="1.5" fill="rgba(255,255,255,.7)" opacity="0.49"/><circle cx="291" cy="200" r="1.8499999999999999" fill="rgba(255,255,255,.7)" opacity="0.61"/><circle cx="388" cy="253" r="0.8" fill="rgba(255,255,255,.7)" opacity="0.73"/><circle cx="485" cy="306" r="1.15" fill="rgba(255,255,255,.7)" opacity="0.25"/><circle cx="582" cy="359" r="1.5" fill="rgba(255,255,255,.7)" opacity="0.37"/><circle cx="679" cy="412" r="1.8499999999999999" fill="rgba(255,255,255,.7)" opacity="0.49"/><circle cx="776" cy="465" r="0.8" fill="rgba(255,255,255,.7)" opacity="0.61"/><circle cx="873" cy="518" r="1.15" fill="rgba(255,255,255,.7)" opacity="0.73"/><circle cx="970" cy="571" r="1.5" fill="rgba(255,255,255,.7)" opacity="0.25"/><circle cx="1067" cy="624" r="1.8499999999999999" fill="rgba(255,255,255,.7)" opacity="0.37"/><circle cx="1164" cy="677" r="0.8" fill="rgba(255,255,255,.7)" opacity="0.49"/><circle cx="1261" cy="730" r="1.15" fill="rgba(255,255,255,.7)" opacity="0.61"/><circle cx="1358" cy="783" r="1.5" fill="rgba(255,255,255,.7)" opacity="0.73"/><circle cx="1455" cy="836" r="1.8499999999999999" fill="rgba(255,255,255,.7)" opacity="0.25"/><circle cx="1552" cy="889" r="0.8" fill="rgba(255,255,255,.7)" opacity="0.37"/><circle cx="49" cy="42" r="1.15" fill="rgba(255,255,255,.7)" opacity="0.49"/><circle cx="146" cy="95" r="1.5" fill="rgba(255,255,255,.7)" opacity="0.61"/><circle cx="243" cy="148" r="1.8499999999999999" fill="rgba(255,255,255,.7)" opacity="0.73"/><circle cx="340" cy="201" r="0.8" fill="rgba(255,255,255,.7)" opacity="0.25"/><circle cx="437" cy="254" r="1.15" fill="rgba(255,255,255,.7)" opacity="0.37"/><circle cx="534" cy="307" r="1.5" fill="rgba(255,255,255,.7)" opacity="0.49"/><circle cx="631" cy="360" r="1.8499999999999999" fill="rgba(255,255,255,.7)" opacity="0.61"/><circle cx="728" cy="413" r="0.8" fill="rgba(255,255,255,.7)" opacity="0.73"/><circle cx="825" cy="466" r="1.15" fill="rgba(255,255,255,.7)" opacity="0.25"/><circle cx="922" cy="519" r="1.5" fill="rgba(255,255,255,.7)" opacity="0.37"/><circle cx="1019" cy="572" r="1.8499999999999999" fill="rgba(255,255,255,.7)" opacity="0.49"/><circle cx="1116" cy="625" r="0.8" fill="rgba(255,255,255,.7)" opacity="0.61"/><circle cx="1213" cy="678" r="1.15" fill="rgba(255,255,255,.7)" opacity="0.73"/><circle cx="1310" cy="731" r="1.5" fill="rgba(255,255,255,.7)" opacity="0.25"/><circle cx="1407" cy="784" r="1.8499999999999999" fill="rgba(255,255,255,.7)" opacity="0.37"/><circle cx="1504" cy="837" r="0.8" fill="rgba(255,255,255,.7)" opacity="0.49"/><circle cx="1" cy="890" r="1.15" fill="rgba(255,255,255,.7)" opacity="0.61"/><circle cx="98" cy="43" r="1.5" fill="rgba(255,255,255,.7)" opacity="0.73"/><circle cx="195" cy="96" r="1.8499999999999999" fill="rgba(255,255,255,.7)" opacity="0.25"/><circle cx="292" cy="149" r="0.8" fill="rgba(255,255,255,.7)" opacity="0.37"/><circle cx="389" cy="202" r="1.15" fill="rgba(255,255,255,.7)" opacity="0.49"/><circle cx="486" cy="255" r="1.5" fill="rgba(255,255,255,.7)" opacity="0.61"/><circle cx="583" cy="308" r="1.8499999999999999" fill="rgba(255,255,255,.7)" opacity="0.73"/><circle cx="680" cy="361" r="0.8" fill="rgba(255,255,255,.7)" opacity="0.25"/><circle cx="777" cy="414" r="1.15" fill="rgba(255,255,255,.7)" opacity="0.37"/><circle cx="874" cy="467" r="1.5" fill="rgba(255,255,255,.7)" opacity="0.49"/><circle cx="971" cy="520" r="1.8499999999999999" fill="rgba(255,255,255,.7)" opacity="0.61"/><circle cx="1068" cy="573" r="0.8" fill="rgba(255,255,255,.7)" opacity="0.73"/><circle cx="1165" cy="626" r="1.15" fill="rgba(255,255,255,.7)" opacity="0.25"/><circle cx="1262" cy="679" r="1.5" fill="rgba(255,255,255,.7)" opacity="0.37"/><circle cx="1359" cy="732" r="1.8499999999999999" fill="rgba(255,255,255,.7)" opacity="0.49"/><circle cx="1456" cy="785" r="0.8" fill="rgba(255,255,255,.7)" opacity="0.61"/><circle cx="1553" cy="838" r="1.15" fill="rgba(255,255,255,.7)" opacity="0.73"/><circle cx="50" cy="891" r="1.5" fill="rgba(255,255,255,.7)" opacity="0.25"/><circle cx="147" cy="44" r="1.8499999999999999" fill="rgba(255,255,255,.7)" opacity="0.37"/><circle cx="244" cy="97" r="0.8" fill="rgba(255,255,255,.7)" opacity="0.49"/><circle cx="341" cy="150" r="1.15" fill="rgba(255,255,255,.7)" opacity="0.61"/><circle cx="438" cy="203" r="1.5" fill="rgba(255,255,255,.7)" opacity="0.73"/><circle cx="535" cy="256" r="1.8499999999999999" fill="rgba(255,255,255,.7)" opacity="0.25"/><circle cx="632" cy="309" r="0.8" fill="rgba(255,255,255,.7)" opacity="0.37"/><circle cx="729" cy="362" r="1.15" fill="rgba(255,255,255,.7)" opacity="0.49"/><circle cx="826" cy="415" r="1.5" fill="rgba(255,255,255,.7)" opacity="0.61"/><circle cx="923" cy="468" r="1.8499999999999999" fill="rgba(255,255,255,.7)" opacity="0.73"/><circle cx="1020" cy="521" r="0.8" fill="rgba(255,255,255,.7)" opacity="0.25"/><circle cx="1117" cy="574" r="1.15" fill="rgba(255,255,255,.7)" opacity="0.37"/><circle cx="1214" cy="627" r="1.5" fill="rgba(255,255,255,.7)" opacity="0.49"/><circle cx="1311" cy="680" r="1.8499999999999999" fill="rgba(255,255,255,.7)" opacity="0.61"/><circle cx="1408" cy="733" r="0.8" fill="rgba(255,255,255,.7)" opacity="0.73"/><circle cx="1505" cy="786" r="1.15" fill="rgba(255,255,255,.7)" opacity="0.25"/><circle cx="2" cy="839" r="1.5" fill="rgba(255,255,255,.7)" opacity="0.37"/><circle cx="99" cy="892" r="1.8499999999999999" fill="rgba(255,255,255,.7)" opacity="0.49"/><circle cx="196" cy="45" r="0.8" fill="rgba(255,255,255,.7)" opacity="0.61"/><circle cx="293" cy="98" r="1.15" fill="rgba(255,255,255,.7)" opacity="0.73"/><circle cx="390" cy="151" r="1.5" fill="rgba(255,255,255,.7)" opacity="0.25"/><circle cx="487" cy="204" r="1.8499999999999999" fill="rgba(255,255,255,.7)" opacity="0.37"/><circle cx="584" cy="257" r="0.8" fill="rgba(255,255,255,.7)" opacity="0.49"/><circle cx="681" cy="310" r="1.15" fill="rgba(255,255,255,.7)" opacity="0.61"/><circle cx="778" cy="363" r="1.5" fill="rgba(255,255,255,.7)" opacity="0.73"/><circle cx="875" cy="416" r="1.8499999999999999" fill="rgba(255,255,255,.7)" opacity="0.25"/><circle cx="972" cy="469" r="0.8" fill="rgba(255,255,255,.7)" opacity="0.37"/><circle cx="1069" cy="522" r="1.15" fill="rgba(255,255,255,.7)" opacity="0.49"/><circle cx="1166" cy="575" r="1.5" fill="rgba(255,255,255,.7)" opacity="0.61"/><circle cx="1263" cy="628" r="1.8499999999999999" fill="rgba(255,255,255,.7)" opacity="0.73"/>
    <circle cx="960" cy="330" r="170" fill="#fff0b8" opacity=".36" filter="url(#glow)"/>
    <path d="M580 760l120-340h520l120 340z" fill="rgba(80,28,20,.86)" stroke="#ff8a3d" stroke-width="5"/>
    <path d="M705 420l255-175 255 175z" fill="rgba(255,138,61,.34)" stroke="#fff0b8" stroke-width="3"/>
    <g stroke="#fff0b8" stroke-width="4" filter="url(#glow)"><path d="M1170 330L1245 330"/><path d="M1141.865334794732 435L1206.817240078565 472.5"/><path d="M1065 511.8653347947321L1102.5 576.817240078565"/><path d="M960 540L960 615"/><path d="M855 511.8653347947321L817.5 576.817240078565"/><path d="M778.1346652052679 435L713.182759921435 472.5"/><path d="M750 330L675 330.00000000000006"/><path d="M778.1346652052679 225.00000000000006L713.1827599214349 187.50000000000009"/><path d="M854.9999999999999 148.1346652052679L817.4999999999999 83.18275992143504"/><path d="M960 120L960 45"/><path d="M1065 148.1346652052679L1102.5 83.18275992143501"/><path d="M1141.865334794732 224.9999999999999L1206.817240078565 187.4999999999999"/></g>
    <path d="M0 810c280-74 488-78 724-28s494 58 876-56v174H0z" fill="rgba(5,7,12,.72)"/>
</svg>