<?xml version="1.0" encoding="UTF-8"?>
<svg xmlns="http://www.w3.org/2000/svg" width="1920" height="1080" viewBox="0 0 1920 1080" role="img">
  <defs>
    <filter id="glow" x="-50%" y="-50%" width="200%" height="200%">
      <feGaussianBlur stdDeviation="7" result="blur"/>
      <feMerge>
        <feMergeNode in="blur"/>
        <feMergeNode in="SourceGraphic"/>
      </feMerge>
    </filter>
    <pattern id="grid" width="52" height="52" patternUnits="userSpaceOnUse">
      <path d="M52 0H0v52" fill="none" stroke="rgba(255,255,255,.08)" stroke-width="1"/>
    </pattern>
    
  </defs>
  
    <rect width="1920" height="1080" fill="#070913"/>
    <rect width="1920" height="1080" fill="url(#grid)" opacity=".7"/>
    <circle cx="0" cy="41" r="0.8" fill="rgba(255,255,255,.7)" opacity="0.25"/><circle cx="97" cy="94" r="1.15" fill="rgba(255,255,255,.7)" opacity="0.37"/><circle cx="194" cy="147" r="1.5" fill="rgba(255,255,255,.7)" opacity="0.49"/><circle cx="291" cy="200" r="1.8499999999999999" fill="rgba(255,255,255,.7)" opacity="0.61"/><circle cx="388" cy="253" r="0.8" fill="rgba(255,255,255,.7)" opacity="0.73"/><circle cx="485" cy="306" r="1.15" fill="rgba(255,255,255,.7)" opacity="0.25"/><circle cx="582" cy="359" r="1.5" fill="rgba(255,255,255,.7)" opacity="0.37"/><circle cx="679" cy="412" r="1.8499999999999999" fill="rgba(255,255,255,.7)" opacity="0.49"/><circle cx="776" cy="465" r="0.8" fill="rgba(255,255,255,.7)" opacity="0.61"/><circle cx="873" cy="518" r="1.15" fill="rgba(255,255,255,.7)" opacity="0.73"/><circle cx="970" cy="571" r="1.5" fill="rgba(255,255,255,.7)" opacity="0.25"/><circle cx="1067" cy="624" r="1.8499999999999999" fill="rgba(255,255,255,.7)" opacity="0.37"/><circle cx="1164" cy="677" r="0.8" fill="rgba(255,255,255,.7)" opacity="0.49"/><circle cx="1261" cy="730" r="1.15" fill="rgba(255,255,255,.7)" opacity="0.61"/><circle cx="1358" cy="783" r="1.5" fill="rgba(255,255,255,.7)" opacity="0.73"/><circle cx="1455" cy="836" r="1.8499999999999999" fill="rgba(255,255,255,.7)" opacity="0.25"/><circle cx="1552" cy="889" r="0.8" fill="rgba(255,255,255,.7)" opacity="0.37"/><circle cx="1649" cy="942" r="1.15" fill="rgba(255,255,255,.7)" opacity="0.49"/><circle cx="1746" cy="995" r="1.5" fill="rgba(255,255,255,.7)" opacity="0.61"/><circle cx="1843" cy="1048" r="1.8499999999999999" fill="rgba(255,255,255,.7)" opacity="0.73"/><circle cx="20" cy="21" r="0.8" fill="rgba(255,255,255,.7)" opacity="0.25"/><circle cx="117" cy="74" r="1.15" fill="rgba(255,255,255,.7)" opacity="0.37"/><circle cx="214" cy="127" r="1.5" fill="rgba(255,255,255,.7)" opacity="0.49"/><circle cx="311" cy="180" r="1.8499999999999999" fill="rgba(255,255,255,.7)" opacity="0.61"/><circle cx="408" cy="233" r="0.8" fill="rgba(255,255,255,.7)" opacity="0.73"/><circle cx="505" cy="286" r="1.15" fill="rgba(255,255,255,.7)" opacity="0.25"/><circle cx="602" cy="339" r="1.5" fill="rgba(255,255,255,.7)" opacity="0.37"/><circle cx="699" cy="392" r="1.8499999999999999" fill="rgba(255,255,255,.7)" opacity="0.49"/><circle cx="796" cy="445" r="0.8" fill="rgba(255,255,255,.7)" opacity="0.61"/><circle cx="893" cy="498" r="1.15" fill="rgba(255,255,255,.7)" opacity="0.73"/><circle cx="990" cy="551" r="1.5" fill="rgba(255,255,255,.7)" opacity="0.25"/><circle cx="1087" cy="604" r="1.8499999999999999" fill="rgba(255,255,255,.7)" opacity="0.37"/><circle cx="1184" cy="657" r="0.8" fill="rgba(255,255,255,.7)" opacity="0.49"/><circle cx="1281" cy="710" r="1.15" fill="rgba(255,255,255,.7)" opacity="0.61"/><circle cx="1378" cy="763" r="1.5" fill="rgba(255,255,255,.7)" opacity="0.73"/><circle cx="1475" cy="816" r="1.8499999999999999" fill="rgba(255,255,255,.7)" opacity="0.25"/><circle cx="1572" cy="869" r="0.8" fill="rgba(255,255,255,.7)" opacity="0.37"/><circle cx="1669" cy="922" r="1.15" fill="rgba(255,255,255,.7)" opacity="0.49"/><circle cx="1766" cy="975" r="1.5" fill="rgba(255,255,255,.7)" opacity="0.61"/><circle cx="1863" cy="1028" r="1.8499999999999999" fill="rgba(255,255,255,.7)" opacity="0.73"/><circle cx="40" cy="1" r="0.8" fill="rgba(255,255,255,.7)" opacity="0.25"/><circle cx="137" cy="54" r="1.15" fill="rgba(255,255,255,.7)" opacity="0.37"/><circle cx="234" cy="107" r="1.5" fill="rgba(255,255,255,.7)" opacity="0.49"/><circle cx="331" cy="160" r="1.8499999999999999" fill="rgba(255,255,255,.7)" opacity="0.61"/><circle cx="428" cy="213" r="0.8" fill="rgba(255,255,255,.7)" opacity="0.73"/><circle cx="525" cy="266" r="1.15" fill="rgba(255,255,255,.7)" opacity="0.25"/><circle cx="622" cy="319" r="1.5" fill="rgba(255,255,255,.7)" opacity="0.37"/><circle cx="719" cy="372" r="1.8499999999999999" fill="rgba(255,255,255,.7)" opacity="0.49"/><circle cx="816" cy="425" r="0.8" fill="rgba(255,255,255,.7)" opacity="0.61"/><circle cx="913" cy="478" r="1.15" fill="rgba(255,255,255,.7)" opacity="0.73"/><circle cx="1010" cy="531" r="1.5" fill="rgba(255,255,255,.7)" opacity="0.25"/><circle cx="1107" cy="584" r="1.8499999999999999" fill="rgba(255,255,255,.7)" opacity="0.37"/><circle cx="1204" cy="637" r="0.8" fill="rgba(255,255,255,.7)" opacity="0.49"/><circle cx="1301" cy="690" r="1.15" fill="rgba(255,255,255,.7)" opacity="0.61"/><circle cx="1398" cy="743" r="1.5" fill="rgba(255,255,255,.7)" opacity="0.73"/><circle cx="1495" cy="796" r="1.8499999999999999" fill="rgba(255,255,255,.7)" opacity="0.25"/><circle cx="1592" cy="849" r="0.8" fill="rgba(255,255,255,.7)" opacity="0.37"/><circle cx="1689" cy="902" r="1.15" fill="rgba(255,255,255,.7)" opacity="0.49"/><circle cx="1786" cy="955" r="1.5" fill="rgba(255,255,255,.7)" opacity="0.61"/><circle cx="1883" cy="1008" r="1.8499999999999999" fill="rgba(255,255,255,.7)" opacity="0.73"/><circle cx="60" cy="1061" r="0.8" fill="rgba(255,255,255,.7)" opacity="0.25"/><circle cx="157" cy="34" r="1.15" fill="rgba(255,255,255,.7)" opacity="0.37"/><circle cx="254" cy="87" r="1.5" fill="rgba(255,255,255,.7)" opacity="0.49"/><circle cx="351" cy="140" r="1.8499999999999999" fill="rgba(255,255,255,.7)" opacity="0.61"/><circle cx="448" cy="193" r="0.8" fill="rgba(255,255,255,.7)" opacity="0.73"/><circle cx="545" cy="246" r="1.15" fill="rgba(255,255,255,.7)" opacity="0.25"/><circle cx="642" cy="299" r="1.5" fill="rgba(255,255,255,.7)" opacity="0.37"/><circle cx="739" cy="352" r="1.8499999999999999" fill="rgba(255,255,255,.7)" opacity="0.49"/><circle cx="836" cy="405" r="0.8" fill="rgba(255,255,255,.7)" opacity="0.61"/><circle cx="933" cy="458" r="1.15" fill="rgba(255,255,255,.7)" opacity="0.73"/><circle cx="1030" cy="511" r="1.5" fill="rgba(255,255,255,.7)" opacity="0.25"/><circle cx="1127" cy="564" r="1.8499999999999999" fill="rgba(255,255,255,.7)" opacity="0.37"/><circle cx="1224" cy="617" r="0.8" fill="rgba(255,255,255,.7)" opacity="0.49"/><circle cx="1321" cy="670" r="1.15" fill="rgba(255,255,255,.7)" opacity="0.61"/><circle cx="1418" cy="723" r="1.5" fill="rgba(255,255,255,.7)" opacity="0.73"/><circle cx="1515" cy="776" r="1.8499999999999999" fill="rgba(255,255,255,.7)" opacity="0.25"/><circle cx="1612" cy="829" r="0.8" fill="rgba(255,255,255,.7)" opacity="0.37"/><circle cx="1709" cy="882" r="1.15" fill="rgba(255,255,255,.7)" opacity="0.49"/><circle cx="1806" cy="935" r="1.5" fill="rgba(255,255,255,.7)" opacity="0.61"/><circle cx="1903" cy="988" r="1.8499999999999999" fill="rgba(255,255,255,.7)" opacity="0.73"/><circle cx="80" cy="1041" r="0.8" fill="rgba(255,255,255,.7)" opacity="0.25"/><circle cx="177" cy="14" r="1.15" fill="rgba(255,255,255,.7)" opacity="0.37"/><circle cx="274" cy="67" r="1.5" fill="rgba(255,255,255,.7)" opacity="0.49"/><circle cx="371" cy="120" r="1.8499999999999999" fill="rgba(255,255,255,.7)" opacity="0.61"/><circle cx="468" cy="173" r="0.8" fill="rgba(255,255,255,.7)" opacity="0.73"/><circle cx="565" cy="226" r="1.15" fill="rgba(255,255,255,.7)" opacity="0.25"/><circle cx="662" cy="279" r="1.5" fill="rgba(255,255,255,.7)" opacity="0.37"/><circle cx="759" cy="332" r="1.8499999999999999" fill="rgba(255,255,255,.7)" opacity="0.49"/><circle cx="856" cy="385" r="0.8" fill="rgba(255,255,255,.7)" opacity="0.61"/><circle cx="953" cy="438" r="1.15" fill="rgba(255,255,255,.7)" opacity="0.73"/><circle cx="1050" cy="491" r="1.5" fill="rgba(255,255,255,.7)" opacity="0.25"/><circle cx="1147" cy="544" r="1.8499999999999999" fill="rgba(255,255,255,.7)" opacity="0.37"/><circle cx="1244" cy="597" r="0.8" fill="rgba(255,255,255,.7)" opacity="0.49"/><circle cx="1341" cy="650" r="1.15" fill="rgba(255,255,255,.7)" opacity="0.61"/><circle cx="1438" cy="703" r="1.5" fill="rgba(255,255,255,.7)" opacity="0.73"/><circle cx="1535" cy="756" r="1.8499999999999999" fill="rgba(255,255,255,.7)" opacity="0.25"/><circle cx="1632" cy="809" r="0.8" fill="rgba(255,255,255,.7)" opacity="0.37"/><circle cx="1729" cy="862" r="1.15" fill="rgba(255,255,255,.7)" opacity="0.49"/><circle cx="1826" cy="915" r="1.5" fill="rgba(255,255,255,.7)" opacity="0.61"/><circle cx="3" cy="968" r="1.8499999999999999" fill="rgba(255,255,255,.7)" opacity="0.73"/><circle cx="100" cy="1021" r="0.8" fill="rgba(255,255,255,.7)" opacity="0.25"/><circle cx="197" cy="1074" r="1.15" fill="rgba(255,255,255,.7)" opacity="0.37"/><circle cx="294" cy="47" r="1.5" fill="rgba(255,255,255,.7)" opacity="0.49"/><circle cx="391" cy="100" r="1.8499999999999999" fill="rgba(255,255,255,.7)" opacity="0.61"/><circle cx="488" cy="153" r="0.8" fill="rgba(255,255,255,.7)" opacity="0.73"/><circle cx="585" cy="206" r="1.15" fill="rgba(255,255,255,.7)" opacity="0.25"/><circle cx="682" cy="259" r="1.5" fill="rgba(255,255,255,.7)" opacity="0.37"/><circle cx="779" cy="312" r="1.8499999999999999" fill="rgba(255,255,255,.7)" opacity="0.49"/><circle cx="876" cy="365" r="0.8" fill="rgba(255,255,255,.7)" opacity="0.61"/><circle cx="973" cy="418" r="1.15" fill="rgba(255,255,255,.7)" opacity="0.73"/><circle cx="1070" cy="471" r="1.5" fill="rgba(255,255,255,.7)" opacity="0.25"/><circle cx="1167" cy="524" r="1.8499999999999999" fill="rgba(255,255,255,.7)" opacity="0.37"/><circle cx="1264" cy="577" r="0.8" fill="rgba(255,255,255,.7)" opacity="0.49"/><circle cx="1361" cy="630" r="1.15" fill="rgba(255,255,255,.7)" opacity="0.61"/><circle cx="1458" cy="683" r="1.5" fill="rgba(255,255,255,.7)" opacity="0.73"/><circle cx="1555" cy="736" r="1.8499999999999999" fill="rgba(255,255,255,.7)" opacity="0.25"/><circle cx="1652" cy="789" r="0.8" fill="rgba(255,255,255,.7)" opacity="0.37"/><circle cx="1749" cy="842" r="1.15" fill="rgba(255,255,255,.7)" opacity="0.49"/><circle cx="1846" cy="895" r="1.5" fill="rgba(255,255,255,.7)" opacity="0.61"/><circle cx="23" cy="948" r="1.8499999999999999" fill="rgba(255,255,255,.7)" opacity="0.73"/><circle cx="120" cy="1001" r="0.8" fill="rgba(255,255,255,.7)" opacity="0.25"/><circle cx="217" cy="1054" r="1.15" fill="rgba(255,255,255,.7)" opacity="0.37"/><circle cx="314" cy="27" r="1.5" fill="rgba(255,255,255,.7)" opacity="0.49"/><circle cx="411" cy="80" r="1.8499999999999999" fill="rgba(255,255,255,.7)" opacity="0.61"/><circle cx="508" cy="133" r="0.8" fill="rgba(255,255,255,.7)" opacity="0.73"/><circle cx="605" cy="186" r="1.15" fill="rgba(255,255,255,.7)" opacity="0.25"/><circle cx="702" cy="239" r="1.5" fill="rgba(255,255,255,.7)" opacity="0.37"/><circle cx="799" cy="292" r="1.8499999999999999" fill="rgba(255,255,255,.7)" opacity="0.49"/><circle cx="896" cy="345" r="0.8" fill="rgba(255,255,255,.7)" opacity="0.61"/><circle cx="993" cy="398" r="1.15" fill="rgba(255,255,255,.7)" opacity="0.73"/><circle cx="1090" cy="451" r="1.5" fill="rgba(255,255,255,.7)" opacity="0.25"/><circle cx="1187" cy="504" r="1.8499999999999999" fill="rgba(255,255,255,.7)" opacity="0.37"/><circle cx="1284" cy="557" r="0.8" fill="rgba(255,255,255,.7)" opacity="0.49"/><circle cx="1381" cy="610" r="1.15" fill="rgba(255,255,255,.7)" opacity="0.61"/><circle cx="1478" cy="663" r="1.5" fill="rgba(255,255,255,.7)" opacity="0.73"/><circle cx="1575" cy="716" r="1.8499999999999999" fill="rgba(255,255,255,.7)" opacity="0.25"/><circle cx="1672" cy="769" r="0.8" fill="rgba(255,255,255,.7)" opacity="0.37"/><circle cx="1769" cy="822" r="1.15" fill="rgba(255,255,255,.7)" opacity="0.49"/><circle cx="1866" cy="875" r="1.5" fill="rgba(255,255,255,.7)" opacity="0.61"/><circle cx="43" cy="928" r="1.8499999999999999" fill="rgba(255,255,255,.7)" opacity="0.73"/><circle cx="140" cy="981" r="0.8" fill="rgba(255,255,255,.7)" opacity="0.25"/><circle cx="237" cy="1034" r="1.15" fill="rgba(255,255,255,.7)" opacity="0.37"/><circle cx="334" cy="7" r="1.5" fill="rgba(255,255,255,.7)" opacity="0.49"/><circle cx="431" cy="60" r="1.8499999999999999" fill="rgba(255,255,255,.7)" opacity="0.61"/><circle cx="528" cy="113" r="0.8" fill="rgba(255,255,255,.7)" opacity="0.73"/><circle cx="625" cy="166" r="1.15" fill="rgba(255,255,255,.7)" opacity="0.25"/><circle cx="722" cy="219" r="1.5" fill="rgba(255,255,255,.7)" opacity="0.37"/><circle cx="819" cy="272" r="1.8499999999999999" fill="rgba(255,255,255,.7)" opacity="0.49"/><circle cx="916" cy="325" r="0.8" fill="rgba(255,255,255,.7)" opacity="0.61"/><circle cx="1013" cy="378" r="1.15" fill="rgba(255,255,255,.7)" opacity="0.73"/><circle cx="1110" cy="431" r="1.5" fill="rgba(255,255,255,.7)" opacity="0.25"/><circle cx="1207" cy="484" r="1.8499999999999999" fill="rgba(255,255,255,.7)" opacity="0.37"/><circle cx="1304" cy="537" r="0.8" fill="rgba(255,255,255,.7)" opacity="0.49"/><circle cx="1401" cy="590" r="1.15" fill="rgba(255,255,255,.7)" opacity="0.61"/><circle cx="1498" cy="643" r="1.5" fill="rgba(255,255,255,.7)" opacity="0.73"/><circle cx="1595" cy="696" r="1.8499999999999999" fill="rgba(255,255,255,.7)" opacity="0.25"/><circle cx="1692" cy="749" r="0.8" fill="rgba(255,255,255,.7)" opacity="0.37"/><circle cx="1789" cy="802" r="1.15" fill="rgba(255,255,255,.7)" opacity="0.49"/><circle cx="1886" cy="855" r="1.5" fill="rgba(255,255,255,.7)" opacity="0.61"/><circle cx="63" cy="908" r="1.8499999999999999" fill="rgba(255,255,255,.7)" opacity="0.73"/><circle cx="160" cy="961" r="0.8" fill="rgba(255,255,255,.7)" opacity="0.25"/><circle cx="257" cy="1014" r="1.15" fill="rgba(255,255,255,.7)" opacity="0.37"/><circle cx="354" cy="1067" r="1.5" fill="rgba(255,255,255,.7)" opacity="0.49"/><circle cx="451" cy="40" r="1.8499999999999999" fill="rgba(255,255,255,.7)" opacity="0.61"/><circle cx="548" cy="93" r="0.8" fill="rgba(255,255,255,.7)" opacity="0.73"/><circle cx="645" cy="146" r="1.15" fill="rgba(255,255,255,.7)" opacity="0.25"/><circle cx="742" cy="199" r="1.5" fill="rgba(255,255,255,.7)" opacity="0.37"/><circle cx="839" cy="252" r="1.8499999999999999" fill="rgba(255,255,255,.7)" opacity="0.49"/><circle cx="936" cy="305" r="0.8" fill="rgba(255,255,255,.7)" opacity="0.61"/><circle cx="1033" cy="358" r="1.15" fill="rgba(255,255,255,.7)" opacity="0.73"/><circle cx="1130" cy="411" r="1.5" fill="rgba(255,255,255,.7)" opacity="0.25"/><circle cx="1227" cy="464" r="1.8499999999999999" fill="rgba(255,255,255,.7)" opacity="0.37"/><circle cx="1324" cy="517" r="0.8" fill="rgba(255,255,255,.7)" opacity="0.49"/><circle cx="1421" cy="570" r="1.15" fill="rgba(255,255,255,.7)" opacity="0.61"/><circle cx="1518" cy="623" r="1.5" fill="rgba(255,255,255,.7)" opacity="0.73"/><circle cx="1615" cy="676" r="1.8499999999999999" fill="rgba(255,255,255,.7)" opacity="0.25"/><circle cx="1712" cy="729" r="0.8" fill="rgba(255,255,255,.7)" opacity="0.37"/><circle cx="1809" cy="782" r="1.15" fill="rgba(255,255,255,.7)" opacity="0.49"/><circle cx="1906" cy="835" r="1.5" fill="rgba(255,255,255,.7)" opacity="0.61"/><circle cx="83" cy="888" r="1.8499999999999999" fill="rgba(255,255,255,.7)" opacity="0.73"/>
    <path d="M1280 0c-90 210-72 384 54 520s132 302 18 560h568V0z" fill="rgba(210,67,67,.22)"/>
    <path d="M1144 1080c150-214 172-408 66-582S1058 188 1240 0" fill="none" stroke="#72e5ff" stroke-width="4" opacity=".45" filter="url(#glow)"/>
    <path d="M1235 1080c150-240 164-435 42-585S1134 188 1320 0" fill="none" stroke="#ffc766" stroke-width="2" opacity=".35"/>
    <g opacity=".95">
      <path d="M210 790h680l160 92H112z" fill="rgba(8,10,18,.88)" stroke="rgba(114,229,255,.34)" stroke-width="3"/>
      <path d="M340 716h390l130 72H230z" fill="rgba(25,35,58,.86)" stroke="rgba(255,199,102,.28)" stroke-width="2"/>
      <g fill="#151a2c">
        <rect x="285" y="350" width="78" height="370"/>
        <rect x="392" y="290" width="92" height="430"/>
        <rect x="522" y="210" width="118" height="510"/>
        <rect x="678" y="405" width="80" height="315"/>
        <rect x="800" y="320" width="105" height="400"/>
      </g>
      <g stroke="#d24343" stroke-width="5" opacity=".9" filter="url(#glow)">
        <path d="M328 350v350M438 290v420M580 210v500M840 320v390"/>
      </g>
    </g>
    <g filter="url(#glow)">
      <circle cx="1320" cy="510" r="110" fill="none" stroke="#72e5ff" stroke-width="3" opacity=".7"/>
      <circle cx="1320" cy="510" r="188" fill="none" stroke="#d24343" stroke-width="2" opacity=".34"/>
      <path d="M1320 322v376M1132 510h376" stroke="#ffc766" stroke-width="2" opacity=".5"/>
    </g>
</svg>