<?xml version="1.0" encoding="UTF-8"?>
<svg xmlns="http://www.w3.org/2000/svg" width="960" height="540" viewBox="0 0 960 540" role="img">
  <defs>
    <filter id="glow" x="-50%" y="-50%" width="200%" height="200%">
      <feGaussianBlur stdDeviation="7" result="blur"/>
      <feMerge>
        <feMergeNode in="blur"/>
        <feMergeNode in="SourceGraphic"/>
      </feMerge>
    </filter>
    <pattern id="grid" width="52" height="52" patternUnits="userSpaceOnUse">
      <path d="M52 0H0v52" fill="none" stroke="rgba(255,255,255,.08)" stroke-width="1"/>
    </pattern>
    
  </defs>
  
    <rect width="960" height="540" fill="#070913"/>
    <radialGradient id="tg" cx="52%" cy="42%" r="75%"><stop offset="0" stop-color="#ffc766" stop-opacity=".26"/><stop offset="1" stop-color="#070913"/></radialGradient>
    <rect width="960" height="540" fill="url(#tg)"/>
    <rect width="960" height="540" fill="url(#grid)" opacity=".35"/>
    <circle cx="0" cy="41" r="0.8" fill="rgba(255,255,255,.7)" opacity="0.25"/><circle cx="97" cy="94" r="1.15" fill="rgba(255,255,255,.7)" opacity="0.37"/><circle cx="194" cy="147" r="1.5" fill="rgba(255,255,255,.7)" opacity="0.49"/><circle cx="291" cy="200" r="1.8499999999999999" fill="rgba(255,255,255,.7)" opacity="0.61"/><circle cx="388" cy="253" r="0.8" fill="rgba(255,255,255,.7)" opacity="0.73"/><circle cx="485" cy="306" r="1.15" fill="rgba(255,255,255,.7)" opacity="0.25"/><circle cx="582" cy="359" r="1.5" fill="rgba(255,255,255,.7)" opacity="0.37"/><circle cx="679" cy="412" r="1.8499999999999999" fill="rgba(255,255,255,.7)" opacity="0.49"/><circle cx="776" cy="465" r="0.8" fill="rgba(255,255,255,.7)" opacity="0.61"/><circle cx="873" cy="518" r="1.15" fill="rgba(255,255,255,.7)" opacity="0.73"/><circle cx="10" cy="31" r="1.5" fill="rgba(255,255,255,.7)" opacity="0.25"/><circle cx="107" cy="84" r="1.8499999999999999" fill="rgba(255,255,255,.7)" opacity="0.37"/><circle cx="204" cy="137" r="0.8" fill="rgba(255,255,255,.7)" opacity="0.49"/><circle cx="301" cy="190" r="1.15" fill="rgba(255,255,255,.7)" opacity="0.61"/><circle cx="398" cy="243" r="1.5" fill="rgba(255,255,255,.7)" opacity="0.73"/><circle cx="495" cy="296" r="1.8499999999999999" fill="rgba(255,255,255,.7)" opacity="0.25"/><circle cx="592" cy="349" r="0.8" fill="rgba(255,255,255,.7)" opacity="0.37"/><circle cx="689" cy="402" r="1.15" fill="rgba(255,255,255,.7)" opacity="0.49"/><circle cx="786" cy="455" r="1.5" fill="rgba(255,255,255,.7)" opacity="0.61"/><circle cx="883" cy="508" r="1.8499999999999999" fill="rgba(255,255,255,.7)" opacity="0.73"/><circle cx="20" cy="21" r="0.8" fill="rgba(255,255,255,.7)" opacity="0.25"/><circle cx="117" cy="74" r="1.15" fill="rgba(255,255,255,.7)" opacity="0.37"/><circle cx="214" cy="127" r="1.5" fill="rgba(255,255,255,.7)" opacity="0.49"/><circle cx="311" cy="180" r="1.8499999999999999" fill="rgba(255,255,255,.7)" opacity="0.61"/><circle cx="408" cy="233" r="0.8" fill="rgba(255,255,255,.7)" opacity="0.73"/><circle cx="505" cy="286" r="1.15" fill="rgba(255,255,255,.7)" opacity="0.25"/><circle cx="602" cy="339" r="1.5" fill="rgba(255,255,255,.7)" opacity="0.37"/><circle cx="699" cy="392" r="1.8499999999999999" fill="rgba(255,255,255,.7)" opacity="0.49"/><circle cx="796" cy="445" r="0.8" fill="rgba(255,255,255,.7)" opacity="0.61"/><circle cx="893" cy="498" r="1.15" fill="rgba(255,255,255,.7)" opacity="0.73"/><circle cx="30" cy="11" r="1.5" fill="rgba(255,255,255,.7)" opacity="0.25"/><circle cx="127" cy="64" r="1.8499999999999999" fill="rgba(255,255,255,.7)" opacity="0.37"/><circle cx="224" cy="117" r="0.8" fill="rgba(255,255,255,.7)" opacity="0.49"/><circle cx="321" cy="170" r="1.15" fill="rgba(255,255,255,.7)" opacity="0.61"/><circle cx="418" cy="223" r="1.5" fill="rgba(255,255,255,.7)" opacity="0.73"/><circle cx="515" cy="276" r="1.8499999999999999" fill="rgba(255,255,255,.7)" opacity="0.25"/><circle cx="612" cy="329" r="0.8" fill="rgba(255,255,255,.7)" opacity="0.37"/><circle cx="709" cy="382" r="1.15" fill="rgba(255,255,255,.7)" opacity="0.49"/><circle cx="806" cy="435" r="1.5" fill="rgba(255,255,255,.7)" opacity="0.61"/><circle cx="903" cy="488" r="1.8499999999999999" fill="rgba(255,255,255,.7)" opacity="0.73"/><circle cx="40" cy="1" r="0.8" fill="rgba(255,255,255,.7)" opacity="0.25"/><circle cx="137" cy="54" r="1.15" fill="rgba(255,255,255,.7)" opacity="0.37"/><circle cx="234" cy="107" r="1.5" fill="rgba(255,255,255,.7)" opacity="0.49"/><circle cx="331" cy="160" r="1.8499999999999999" fill="rgba(255,255,255,.7)" opacity="0.61"/><circle cx="428" cy="213" r="0.8" fill="rgba(255,255,255,.7)" opacity="0.73"/>
    <g stroke="#ffc766" stroke-width="3" fill="none" filter="url(#glow)"><path d="M170 310c130-120 250-120 360 0s230 120 350 0"/><circle cx="310" cy="250" r="72"/><rect x="612" y="200" width="150" height="110" rx="12"/></g>
    <path d="M0 492h960v48H0z" fill="rgba(5,7,12,.68)"/>
    <path d="M62 494h240" stroke="#72e5ff" stroke-width="4" opacity=".8"/>
  
</svg>